PathFileType	4	(X/Y/Z)	./resultDataOpenSim/trcMotMarkerGrf/sub09/qtm-02-06.trc
DataRate	CameraRate	NumFrames	NumMarkers	Units	OrigDataRate	OrigDataStartFrame	OrigNumFrames
250.000000	250.000000	13	24	m	250.000000	364	485
Frame#	Time	L.Toe.Tip			R.Toe.Tip			L.Ankle.Lat			R.Ankle.Lat			L.Ankle.Med			R.Ankle.Med			L.Heel			R.Heel			L.Knee.Lat			R.Knee.Lat			L.Knee.Med			R.Knee.Med			L.Thigh.Upper			R.Thigh.Upper			L.ASIS			R.ASIS			V.Sacral			L.Acromium			R.Acromium			C7			L.Elbow			R.Elbow			L.Wrist.Lat			R.Wrist.Lat
		X1	Y1	Z1	X2	Y2	Z2	X3	Y3	Z3	X4	Y4	Z4	X5	Y5	Z5	X6	Y6	Z6	X7	Y7	Z7	X8	Y8	Z8	X9	Y9	Z9	X10	Y10	Z10	X11	Y11	Z11	X12	Y12	Z12	X13	Y13	Z13	X14	Y14	Z14	X15	Y15	Z15	X16	Y16	Z16	X17	Y17	Z17	X18	Y18	Z18	X19	Y19	Z19	X20	Y20	Z20	X21	Y21	Z21	X22	Y22	Z22	X23	Y23	Z23	X24	Y24	Z24

364	1.452	1.0144631	0.091564739	0.00080694462	1.0081585	0.039127947	0.13127182	0.90116635	0.19333507	-0.029512295	0.85926107	0.061919351	0.16341843	0.93088117	0.19202842	0.064669089	0.87512929	0.10272963	0.074341365	0.82100355	0.18919809	0.017113761	0.79242189	0.046386188	0.11135143	1.1410624	0.52751319	-0.047530485	0.97072316	0.50776979	0.23353844	1.159332	0.52097925	0.080351814	0.95711534	0.49900607	0.10667794	0.96343233	0.90283289	-0.078582285	0.93975444	0.91415175	0.29196224	1.031057	0.99424769	-0.018748696	1.0316967	1.0020267	0.22052219	0.86128915	1.0459987	0.094916616	1.0045632	1.4463892	-0.069518795	0.9937531	1.4581918	0.26161592	0.9306726	1.5011243	0.09549621	0.86376264	1.1052831	-0.119123	0.86751497	1.110307	0.35800077	0.97876821	0.87345413	-0.16818576	1.071623	0.92013304	0.34380671
365	1.456	1.0339967	0.089594082	0.0015573156	1.0083403	0.039236433	0.13144491	0.91793852	0.18785319	-0.028866773	0.85931306	0.062314999	0.16330318	0.94724414	0.1875334	0.065483725	0.87570523	0.10322787	0.074528593	0.83777664	0.18156621	0.017756236	0.79242229	0.047021056	0.11091632	1.1491706	0.52864764	-0.047062979	0.97189755	0.50806492	0.23385121	1.1612587	0.52184468	0.079324825	0.95899173	0.49920841	0.10731758	0.97000394	0.90318862	-0.078665765	0.94209294	0.91452069	0.29239665	1.0369263	0.99470013	-0.018439233	1.0368493	1.0024208	0.2208894	0.86683777	1.0461992	0.094621481	1.0102817	1.4466408	-0.069472693	0.99937908	1.4585845	0.26165162	0.93641981	1.5015128	0.095525583	0.86762883	1.1064461	-0.1192677	0.87344007	1.1104446	0.35844364	0.98104347	0.87406624	-0.169367	1.0788273	0.92174003	0.3427732
366	1.46	1.0536327	0.087698851	0.0023378424	1.0085397	0.039340254	0.13168062	0.9348521	0.18236325	-0.028205574	0.8593674	0.062698273	0.16318116	0.96388384	0.18297674	0.066255291	0.87624625	0.10373473	0.074631481	0.85479479	0.17387571	0.018388621	0.79243072	0.047644913	0.11048626	1.157203	0.52964245	-0.046602806	0.97307479	0.50830292	0.23417023	1.1652923	0.52271753	0.078827216	0.96080611	0.49945627	0.10780019	0.97663896	0.90346955	-0.078748984	0.94470714	0.9148839	0.29276383	1.042835	0.99508534	-0.018159535	1.0420115	1.0027556	0.22125317	0.87248924	1.0463535	0.094305816	1.0160013	1.4468358	-0.069431703	1.0049863	1.4589089	0.26168052	0.94213051	1.501846	0.095547145	0.8715423	1.1075533	-0.11940698	0.87935115	1.1105121	0.35886616	0.98337508	0.87463197	-0.17052565	1.0860065	0.92326507	0.34173324
367	1.464	1.0733783	0.085887807	0.0031468911	1.0087242	0.039431813	0.13191185	0.95191388	0.17687017	-0.027527832	0.85941733	0.063074934	0.16305526	0.98067892	0.17840663	0.067063468	0.87655984	0.10420817	0.074496553	0.87212233	0.16609051	0.019055087	0.79248852	0.048246931	0.11012346	1.1651263	0.53047906	-0.046147762	0.97413926	0.50850463	0.23448409	1.1714145	0.52358765	0.078851961	0.96248609	0.49976793	0.1080835	0.9833117	0.90367728	-0.078823481	0.94849207	0.91530533	0.29287502	1.04878	0.9953987	-0.017894953	1.0471883	1.0030354	0.22161636	0.87818628	1.0464571	0.093972498	1.0217221	1.4469808	-0.069397402	1.0105847	1.4591674	0.26170784	0.94782004	1.5020983	0.09556344	0.87552713	1.1086217	-0.1195089	0.88525375	1.1105095	0.35926724	0.98576718	0.87515105	-0.17166055	1.0931608	0.92470714	0.34069102
368	1.468	1.0932329	0.084194958	0.0039670498	1.0087969	0.039493976	0.13205561	0.96913492	0.1713828	-0.026831186	0.85945539	0.063447561	0.16292463	0.99762002	0.17387922	0.067902587	0.87670572	0.10463704	0.074192302	0.88983392	0.1581839	0.019840254	0.79259016	0.048829095	0.10981892	1.1729272	0.53114727	-0.045703341	0.97498698	0.50869649	0.23477193	1.1785543	0.52436769	0.079134236	0.96414094	0.50008237	0.1082562	0.98990768	0.9038082	-0.078870726	0.95340018	0.9157689	0.29275573	1.0547472	0.99563704	-0.017627357	1.0523822	1.003262	0.2219799	0.88390238	1.0465061	0.093642348	1.0274425	1.4470839	-0.069375182	1.0161787	1.4593627	0.26173619	0.9535141	1.502264	0.095580523	0.8796116	1.1096715	-0.1195342	0.8911648	1.1104349	0.35964456	0.98821887	0.87562584	-0.17277164	1.100285	0.92606759	0.33965026
369	1.472	1.113168	0.082657599	0.0047695872	1.0087117	0.03952439	0.13211246	0.98650477	0.16593222	-0.026110352	0.85948174	0.063813543	0.16278137	1.0148643	0.16944828	0.068640971	0.87692363	0.10502908	0.073938448	0.9079137	0.15021371	0.020756996	0.79270143	0.049402034	0.109524	1.1805983	0.53165904	-0.04529007	0.97564564	0.50888883	0.23501186	1.1858892	0.52499643	0.079468055	0.96586095	0.50038279	0.10832945	0.99628264	0.90385825	-0.078864777	0.95880949	0.91620587	0.29255221	1.0607244	0.99580349	-0.017350087	1.0575909	1.003433	0.22234208	0.88962544	1.0464874	0.093331164	1.0331622	1.4471541	-0.069372939	1.0217685	1.4594964	0.26176673	0.9592136	1.5023502	0.095604418	0.88380098	1.1106977	-0.11948053	0.89708944	1.110287	0.3599953	0.99072605	0.87605792	-0.17386054	1.1073759	0.92734788	0.33861483
370	1.476	1.1331393	0.081300989	0.0055261845	1.0085687	0.039556333	0.13216374	1.0040095	0.16054231	-0.025366408	0.85950239	0.064171537	0.16261298	1.0326009	0.1651557	0.069137251	0.87734074	0.10540274	0.073847256	0.92616378	0.14235843	0.021660926	0.79279947	0.049975073	0.10920921	1.1881095	0.53205446	-0.04493588	0.97632228	0.50907815	0.23519243	1.1930926	0.52545749	0.079772902	0.96759083	0.50070817	0.10821458	1.00241	0.90383066	-0.078798987	0.96420105	0.91655416	0.29237598	1.0667088	0.99590259	-0.017074402	1.06281	1.0035445	0.22270213	0.89535097	1.0463825	0.093043971	1.0388815	1.4471919	-0.069392745	1.027354	1.4595671	0.26179972	0.96489809	1.5023562	0.095633975	0.88805702	1.1116561	-0.11941879	0.90301524	1.11007	0.3603151	0.99328972	0.87644662	-0.17493013	1.1144313	0.92854821	0.33758703
371	1.48	1.1531159	0.080136784	0.00621765	1.0084917	0.03961837	0.13225977	1.0216501	0.15521706	-0.024609758	0.85953817	0.064523339	0.16240367	1.050829	0.16100988	0.069391577	0.87786975	0.10578011	0.073847209	0.9443788	0.13476329	0.022399513	0.79288294	0.050553229	0.10887095	1.1954216	0.53237411	-0.044652453	0.97729103	0.50925653	0.23531365	1.2000841	0.52575702	0.080035965	0.96925565	0.50105781	0.10794282	1.0083925	0.90373364	-0.078686116	0.96934492	0.91678447	0.29226014	1.0727029	0.99593269	-0.016815268	1.0680371	1.0035928	0.22306266	0.90108044	1.0461889	0.092775343	1.0445979	1.4471799	-0.069424406	1.0329348	1.4595707	0.26183153	0.97055862	1.5022772	0.095663844	0.89232458	1.1124996	-0.11944846	0.90892899	1.1097877	0.36059694	0.99591635	0.87678838	-0.17598309	1.1214472	0.92966707	0.3365667
372	1.484	1.1730935	0.079166662	0.0068328132	1.0084979	0.039694334	0.13238036	1.0394112	0.149985	-0.023849799	0.85964158	0.064866526	0.16213516	1.0692448	0.15697483	0.069593835	0.87838707	0.10617045	0.073826441	0.96264244	0.12735418	0.023058705	0.79296362	0.051135702	0.10850737	1.2025175	0.5326177	-0.044420699	0.97869069	0.50941522	0.23537337	1.2068651	0.52590208	0.080266753	0.9708806	0.5013804	0.10772157	1.0143645	0.9035695	-0.078548321	0.97422442	0.91690157	0.29218521	1.0787094	0.99588508	-0.016569894	1.0732713	1.0035739	0.22342674	0.90681673	1.0459309	0.092509248	1.0503059	1.4470941	-0.069454788	1.0385064	1.4595033	0.26185476	0.97620762	1.5021247	0.095691385	0.89657188	1.1132164	-0.1196221	0.9148297	1.1094398	0.36083857	0.99861126	0.87707798	-0.17702065	1.1284175	0.93070083	0.33555083
373	1.488	1.1930748	0.078386712	0.0073605261	1.0085345	0.039750875	0.13249067	1.0572604	0.14489366	-0.023094586	0.85985251	0.065197445	0.16180373	1.087505	0.15301499	0.069947387	0.87884805	0.10656434	0.073738546	0.98119375	0.11998979	0.023826024	0.79306024	0.051715574	0.10810067	1.2093963	0.53273141	-0.044208584	0.98044414	0.50954939	0.2353569	1.2134682	0.52588988	0.080475711	0.97253129	0.50164557	0.10769542	1.0204156	0.90333378	-0.078412115	0.97893288	0.91693441	0.2921205	1.0847289	0.9957505	-0.016317389	1.0785142	1.0034844	0.22379457	0.91256543	1.0456404	0.092237709	1.0559981	1.4469276	-0.069478832	1.0440611	1.4593643	0.26186404	0.9818498	1.5019262	0.095707989	0.90080003	1.1138216	-0.11992287	0.92072203	1.1090277	0.36104902	1.0013759	0.87731091	-0.17804392	1.1353385	0.93164631	0.33453715
374	1.492	1.2130495	0.077795101	0.0077876122	1.0085628	0.039778633	0.13257843	1.0751858	0.13995939	-0.022353969	0.86011975	0.065525716	0.16144072	1.1055678	0.14914729	0.070469532	0.87926051	0.10694945	0.073593985	1.000016	0.11276197	0.024626148	0.79319536	0.052287686	0.10761908	1.2160607	0.53264406	-0.044001491	0.98236918	0.50966595	0.23525814	1.2199387	0.5257117	0.080668524	0.9742441	0.50186075	0.10781749	1.0265639	0.9030258	-0.078294138	0.98357416	0.9169145	0.29204556	1.0907607	0.99552662	-0.016041534	1.083772	1.003324	0.2241644	0.91833651	1.0453194	0.091974239	1.0616686	1.4466917	-0.069497811	1.0495982	1.4591574	0.26186336	0.98745679	1.5016975	0.09568699	0.90504488	1.1143441	-0.12027661	0.92660723	1.1085531	0.36123337	1.004211	0.87748285	-0.17905589	1.1422156	0.93250487	0.33353287
375	1.496	1.2329954	0.077395963	0.0081054506	1.0085815	0.039789462	0.1326468	1.0931861	0.13518196	-0.02163027	0.86033281	0.065871068	0.1610847	1.1235924	0.14541679	0.071061376	0.87965646	0.1073251	0.073414336	1.0188953	0.10589862	0.025219132	0.7933832	0.052856666	0.10704575	1.2225305	0.53232769	-0.043807424	0.98426525	0.50978435	0.23512275	1.2263028	0.52536077	0.080851531	0.9760399	0.50203689	0.10796945	1.0327869	0.90264979	-0.078198363	0.98820596	0.91685238	0.29194893	1.0968051	0.99521837	-0.01574872	1.0890534	1.0030952	0.22453576	0.92413789	1.044935	0.091737324	1.067318	1.4463977	-0.069514149	1.0551361	1.4588896	0.26187029	0.99298662	1.5014328	0.095599321	0.90936147	1.1148174	-0.12059625	0.93248424	1.1080099	0.36138224	1.0071168	0.87759011	-0.18005953	1.1490585	0.93327957	0.33255157
376	1.5	1.2528844	0.077198166	0.008312453	1.0086004	0.039792574	0.13269799	1.1112438	0.13058217	-0.02091285	0.86042745	0.066251364	0.16073074	1.1416715	0.14184496	0.071661512	0.88007268	0.10770005	0.073204668	1.0378234	0.099417849	0.025627238	0.79361141	0.053434389	0.10641264	1.2288388	0.5318128	-0.043632549	0.98588383	0.50992447	0.23505986	1.2325552	0.52483372	0.081035623	0.97793499	0.50217518	0.10809056	1.0390736	0.90220646	-0.078132621	0.99284354	0.91673574	0.29182519	1.1028653	0.9948317	-0.015462194	1.0943617	1.0027985	0.22490849	0.92996921	1.0444611	0.091531366	1.0729508	1.4460513	-0.069529793	1.0607001	1.4585658	0.26190263	0.99844318	1.5011169	0.095461343	0.91377797	1.1152554	-0.12084692	0.93835489	1.1073931	0.36148915	1.0100913	0.87763355	-0.18105542	1.1558739	0.93397006	0.33160075
